<?xml version="1.0" encoding="UTF-8"?>
<svg xmlns="http://www.w3.org/2000/svg" xmlns:xlink="http://www.w3.org/1999/xlink"
     width="761.2" height="220.0" viewBox="0 0 761.2 220.0">
<defs>
<marker markerWidth="8" markerHeight="8" viewBox="0 0 8 8" orient="auto" id="arrow" refX="8" refY="4.0">
<path d="M0,0 L8,4.0 L0,8 Z" fill="#AAAAAA" />
</marker>
<marker markerWidth="8" markerHeight="8" viewBox="0 0 8 8" orient="auto-start-reverse" id="arrow-start" refX="8" refY="4.0">
<path d="M0,0 L8,4.0 L0,8 Z" fill="#AAAAAA" />
</marker>
<marker markerWidth="8" markerHeight="8" viewBox="0 0 8 8" orient="auto" id="arrow-open" refX="8" refY="4.0">
<path d="M0,0 L8,4.0 L0,8" fill="none" stroke="#AAAAAA" stroke-width="1.5" />
</marker>
<marker markerWidth="8" markerHeight="8" viewBox="0 0 8 8" orient="auto-start-reverse" id="arrow-open-start" refX="8" refY="4.0">
<path d="M0,0 L8,4.0 L0,8" fill="none" stroke="#AAAAAA" stroke-width="1.5" />
</marker>
</defs>
<rect x="0" y="0" width="761.2" height="220.0" fill="#1E1E2E" />
<g id="ggarch-nodes">
<rect x="20.0" y="102.0" width="345.6" height="98.0" fill="#2D1A0E" stroke="#C07040" stroke-width="1" rx="6" ry="6" />
<text x="192.8" y="116.0" font-size="13" font-family="'Ubuntu Sans', Ubuntu, system-ui, -apple-system, sans-serif" fill="#FFD0A0" text-anchor="middle" dominant-baseline="central">postgresql/0</text>
<rect x="36.0" y="130.0" width="104.0" height="42.0" fill="#2A2A3E" stroke="#E95420" stroke-width="1" rx="4" ry="4" />
<text x="88.0" y="151.0" font-size="13" font-family="'Ubuntu Sans', Ubuntu, system-ui, -apple-system, sans-serif" fill="#CDD6F4" text-anchor="middle" dominant-baseline="central">Unit agent</text>
<rect x="41.0" y="134.0" width="14" height="14" fill="#E95420" stroke="none" rx="3" ry="3" />
<text x="48.0" y="141.0" font-size="10" font-family="'Ubuntu Sans', Ubuntu, system-ui, -apple-system, sans-serif" fill="#FFFFFF" text-anchor="middle" dominant-baseline="central" font-weight="bold">J</text>
<rect x="160.0" y="130.0" width="80.0" height="42.0" fill="#252525" stroke="#E95420" stroke-width="2" rx="4" ry="4" />
<text x="200.0" y="151.0" font-size="13" font-family="'Ubuntu Sans', Ubuntu, system-ui, -apple-system, sans-serif" fill="#CDD6F4" text-anchor="middle" dominant-baseline="central">Charm</text>
<rect x="165.0" y="134.0" width="14" height="14" fill="none" stroke="#E95420" stroke-width="1.5" rx="3" ry="3" />
<rect x="260.0" y="130.0" width="89.6" height="42.0" fill="#2A2A2A" stroke="#666666" stroke-width="1" rx="4" ry="4" />
<text x="304.8" y="151.0" font-size="13" font-family="'Ubuntu Sans', Ubuntu, system-ui, -apple-system, sans-serif" fill="#CCCCCC" text-anchor="middle" dominant-baseline="central">Workload</text>
<rect x="395.6" y="102.0" width="345.6" height="98.0" fill="#2D1A0E" stroke="#C07040" stroke-width="1" rx="6" ry="6" />
<text x="568.4000000000001" y="116.0" font-size="13" font-family="'Ubuntu Sans', Ubuntu, system-ui, -apple-system, sans-serif" fill="#FFD0A0" text-anchor="middle" dominant-baseline="central">pgbouncer/0</text>
<rect x="411.6" y="130.0" width="104.0" height="42.0" fill="#2A2A3E" stroke="#E95420" stroke-width="1" rx="4" ry="4" />
<text x="463.6" y="151.0" font-size="13" font-family="'Ubuntu Sans', Ubuntu, system-ui, -apple-system, sans-serif" fill="#CDD6F4" text-anchor="middle" dominant-baseline="central">Unit agent</text>
<rect x="416.6" y="134.0" width="14" height="14" fill="#E95420" stroke="none" rx="3" ry="3" />
<text x="423.6" y="141.0" font-size="10" font-family="'Ubuntu Sans', Ubuntu, system-ui, -apple-system, sans-serif" fill="#FFFFFF" text-anchor="middle" dominant-baseline="central" font-weight="bold">J</text>
<rect x="535.6" y="130.0" width="80.0" height="42.0" fill="#252525" stroke="#E95420" stroke-width="2" rx="4" ry="4" />
<text x="575.6" y="151.0" font-size="13" font-family="'Ubuntu Sans', Ubuntu, system-ui, -apple-system, sans-serif" fill="#CDD6F4" text-anchor="middle" dominant-baseline="central">Charm</text>
<rect x="540.6" y="134.0" width="14" height="14" fill="none" stroke="#E95420" stroke-width="1.5" rx="3" ry="3" />
<rect x="635.6" y="130.0" width="89.6" height="42.0" fill="#2A2A2A" stroke="#666666" stroke-width="1" rx="4" ry="4" />
<text x="680.4" y="151.0" font-size="13" font-family="'Ubuntu Sans', Ubuntu, system-ui, -apple-system, sans-serif" fill="#CCCCCC" text-anchor="middle" dominant-baseline="central">Workload</text>
<rect x="20.0" y="20.0" width="721.2" height="42.0" fill="#2D1A0E" stroke="#C07040" stroke-width="1" rx="6" ry="6" />
<text x="380.6" y="41.0" font-size="13" font-family="'Ubuntu Sans', Ubuntu, system-ui, -apple-system, sans-serif" fill="#FFD0A0" text-anchor="middle" dominant-baseline="central">Controller pod</text>
</g>
<g id="ggarch-edges">
<path d="M 26.0 62.0 L 26.0 102.0" fill="none" stroke="#AAAAAA" stroke-width="1" stroke-linejoin="round" stroke-dasharray="6,3" marker-end="url(#arrow)" />
<path d="M 735.2 62.0 L 735.2 102.0" fill="none" stroke="#AAAAAA" stroke-width="1" stroke-linejoin="round" stroke-dasharray="6,3" marker-end="url(#arrow)" />
<path d="M 140.0 151.0 L 160.0 151.0" fill="none" stroke="#AAAAAA" stroke-width="1" stroke-linejoin="round" marker-end="url(#arrow)" />
<path d="M 240.0 151.0 L 260.0 151.0" fill="none" stroke="#AAAAAA" stroke-width="1" stroke-linejoin="round" marker-end="url(#arrow)" />
<path d="M 515.6 151.0 L 535.6 151.0" fill="none" stroke="#AAAAAA" stroke-width="1" stroke-linejoin="round" marker-end="url(#arrow)" />
<path d="M 615.6 151.0 L 635.6 151.0" fill="none" stroke="#AAAAAA" stroke-width="1" stroke-linejoin="round" marker-end="url(#arrow)" />
</g>
<g id="ggarch-annotations"></g>
</svg>