<?xml version="1.0" encoding="UTF-8"?>
<svg xmlns="http://www.w3.org/2000/svg" xmlns:xlink="http://www.w3.org/1999/xlink"
     width="660" height="454" viewBox="0 0 660 454">
<defs>
<marker markerWidth="8" markerHeight="8" viewBox="0 0 8 8" orient="auto" id="seq-arrow" refX="8" refY="4.0">
<path d="M0,0 L8,4.0 L0,8 Z" fill="#AAAAAA" />
</marker>
<marker markerWidth="8" markerHeight="8" viewBox="0 0 8 8" orient="auto" id="seq-arrow-open" refX="8" refY="4.0">
<path d="M0,0 L8,4.0 L0,8" fill="none" stroke="#AAAAAA" stroke-width="1.5" />
</marker>
</defs>
<rect x="0" y="0" width="660" height="454" fill="#1E1E2E" />
<g>
<rect x="30.0" y="20" width="120" height="40" fill="#E95420" stroke="#C74210" stroke-width="1" rx="4" ry="4" />
<text x="90.0" y="40.0" font-size="12" font-family="'Ubuntu Sans', Ubuntu, system-ui, -apple-system, sans-serif" fill="#FFFFFF" text-anchor="middle" dominant-baseline="central">juju CLI</text>
<path d="M90.0,60 L90.0,384" stroke="#666666" stroke-width="1" stroke-dasharray="6,4" />
<rect x="210.0" y="20" width="120" height="40" fill="#2A2A2A" stroke="#666666" stroke-width="1" rx="4" ry="4" />
<text x="270.0" y="40.0" font-size="12" font-family="'Ubuntu Sans', Ubuntu, system-ui, -apple-system, sans-serif" fill="#CCCCCC" text-anchor="middle" dominant-baseline="central">Kubernetes cluster</text>
<path d="M270.0,60 L270.0,384" stroke="#666666" stroke-width="1" stroke-dasharray="6,4" />
<rect x="390.0" y="20" width="120" height="40" fill="#E95420" stroke="#C74210" stroke-width="1" rx="4" ry="4" />
<text x="450.0" y="40.0" font-size="12" font-family="'Ubuntu Sans', Ubuntu, system-ui, -apple-system, sans-serif" fill="#FFFFFF" text-anchor="middle" dominant-baseline="central">jujud</text>
<path d="M450.0,60 L450.0,384" stroke="#666666" stroke-width="1" stroke-dasharray="6,4" />
<g>
<rect x="265.0" y="150" width="10" height="36" fill="#334466" stroke="#5555AA" stroke-width="1" />
<rect x="265.0" y="222" width="10" height="36" fill="#334466" stroke="#5555AA" stroke-width="1" />
</g>
<path d="M90.0,114 L270.0,114" stroke="#AAAAAA" stroke-width="1" marker-end="url(#seq-arrow)" />
<text x="180.0" y="100.0" font-size="11" font-family="'Ubuntu Sans', Ubuntu, system-ui, -apple-system, sans-serif" fill="#CDD6F4" text-anchor="middle" dominant-baseline="central">juju bootstrap</text>
<path d="M90.0,150 L270.0,150" stroke="#AAAAAA" stroke-width="1" marker-end="url(#seq-arrow)" />
<text x="180.0" y="136.0" font-size="11" font-family="'Ubuntu Sans', Ubuntu, system-ui, -apple-system, sans-serif" fill="#CDD6F4" text-anchor="middle" dominant-baseline="central">authenticate</text>
<path d="M270.0,186 L90.0,186" stroke="#AAAAAA" stroke-width="1" marker-end="url(#seq-arrow)" stroke-dasharray="5,3" />
<text x="180.0" y="172.0" font-size="11" font-family="'Ubuntu Sans', Ubuntu, system-ui, -apple-system, sans-serif" fill="#CDD6F4" text-anchor="middle" dominant-baseline="central">OK</text>
<path d="M90.0,222 L270.0,222" stroke="#AAAAAA" stroke-width="1" marker-end="url(#seq-arrow)" />
<text x="180.0" y="201.5" font-size="11" font-family="'Ubuntu Sans', Ubuntu, system-ui, -apple-system, sans-serif" fill="#CDD6F4" text-anchor="middle" dominant-baseline="central">create namespace + deploy</text>
<text x="180.0" y="214.5" font-size="11" font-family="'Ubuntu Sans', Ubuntu, system-ui, -apple-system, sans-serif" fill="#CDD6F4" text-anchor="middle" dominant-baseline="central">pod</text>
<path d="M270.0,258 L90.0,258" stroke="#AAAAAA" stroke-width="1" marker-end="url(#seq-arrow)" stroke-dasharray="5,3" />
<text x="180.0" y="244.0" font-size="11" font-family="'Ubuntu Sans', Ubuntu, system-ui, -apple-system, sans-serif" fill="#CDD6F4" text-anchor="middle" dominant-baseline="central">pod scheduled</text>
<path d="M 450.0,287.0 L 465.0,287.0 Q 470.0,287.0 470.0,292.0 L 470.0,296.0 Q 470.0,301.0 465.0,301.0 L 450.0,301.0" fill="none" stroke="#AAAAAA" stroke-width="1" marker-end="url(#seq-arrow)" />
<text x="450.0" y="279.0" font-size="11" font-family="'Ubuntu Sans', Ubuntu, system-ui, -apple-system, sans-serif" fill="#CDD6F4" text-anchor="middle" dominant-baseline="central">start API server</text>
<path d="M 450.0,323.0 L 465.0,323.0 Q 470.0,323.0 470.0,328.0 L 470.0,332.0 Q 470.0,337.0 465.0,337.0 L 450.0,337.0" fill="none" stroke="#AAAAAA" stroke-width="1" marker-end="url(#seq-arrow)" />
<text x="450.0" y="315.0" font-size="11" font-family="'Ubuntu Sans', Ubuntu, system-ui, -apple-system, sans-serif" fill="#CDD6F4" text-anchor="middle" dominant-baseline="central">initialise database</text>
<path d="M450.0,366 L90.0,366" stroke="#AAAAAA" stroke-width="1" marker-end="url(#seq-arrow)" stroke-dasharray="5,3" />
<text x="270.0" y="352.0" font-size="11" font-family="'Ubuntu Sans', Ubuntu, system-ui, -apple-system, sans-serif" fill="#CDD6F4" text-anchor="middle" dominant-baseline="central">API ready</text>
<path d="M 90.0,395.0 L 105.0,395.0 Q 110.0,395.0 110.0,400.0 L 110.0,404.0 Q 110.0,409.0 105.0,409.0 L 90.0,409.0" fill="none" stroke="#AAAAAA" stroke-width="1" marker-end="url(#seq-arrow)" />
<text x="90.0" y="387.0" font-size="11" font-family="'Ubuntu Sans', Ubuntu, system-ui, -apple-system, sans-serif" fill="#CDD6F4" text-anchor="middle" dominant-baseline="central">juju bootstrap complete</text>
<rect x="30.0" y="384" width="120" height="40" fill="#E95420" stroke="#C74210" stroke-width="1" rx="4" ry="4" />
<text x="90.0" y="404.0" font-size="12" font-family="'Ubuntu Sans', Ubuntu, system-ui, -apple-system, sans-serif" fill="#FFFFFF" text-anchor="middle" dominant-baseline="central">juju CLI</text>
<rect x="210.0" y="384" width="120" height="40" fill="#2A2A2A" stroke="#666666" stroke-width="1" rx="4" ry="4" />
<text x="270.0" y="404.0" font-size="12" font-family="'Ubuntu Sans', Ubuntu, system-ui, -apple-system, sans-serif" fill="#CCCCCC" text-anchor="middle" dominant-baseline="central">Kubernetes cluster</text>
<rect x="390.0" y="384" width="120" height="40" fill="#E95420" stroke="#C74210" stroke-width="1" rx="4" ry="4" />
<text x="450.0" y="404.0" font-size="12" font-family="'Ubuntu Sans', Ubuntu, system-ui, -apple-system, sans-serif" fill="#FFFFFF" text-anchor="middle" dominant-baseline="central">jujud</text>
</g>
</svg>