<?xml version="1.0" encoding="UTF-8"?>
<svg xmlns="http://www.w3.org/2000/svg" xmlns:xlink="http://www.w3.org/1999/xlink"
     width="660" height="598" viewBox="0 0 660 598">
<defs>
<marker markerWidth="8" markerHeight="8" viewBox="0 0 8 8" orient="auto" id="seq-arrow" refX="8" refY="4.0">
<path d="M0,0 L8,4.0 L0,8 Z" fill="#555555" />
</marker>
<marker markerWidth="8" markerHeight="8" viewBox="0 0 8 8" orient="auto" id="seq-arrow-open" refX="8" refY="4.0">
<path d="M0,0 L8,4.0 L0,8" fill="none" stroke="#555555" stroke-width="1.5" />
</marker>
</defs>
<rect x="0" y="0" width="660" height="598" fill="#FFFFFF" />
<g>
<rect x="30.0" y="20" width="120" height="40" fill="#E95420" stroke="#C74210" stroke-width="1" rx="4" ry="4" />
<text x="90.0" y="40.0" font-size="12" font-family="'Ubuntu Sans', Ubuntu, system-ui, -apple-system, sans-serif" fill="#FFFFFF" text-anchor="middle" dominant-baseline="central">API server</text>
<path d="M90.0,60 L90.0,528" stroke="#CCCCCC" stroke-width="1" stroke-dasharray="6,4" />
<rect x="210.0" y="20" width="120" height="40" fill="#E95420" stroke="#C74210" stroke-width="1" rx="4" ry="4" />
<text x="270.0" y="40.0" font-size="12" font-family="'Ubuntu Sans', Ubuntu, system-ui, -apple-system, sans-serif" fill="#FFFFFF" text-anchor="middle" dominant-baseline="central">Unit agent</text>
<path d="M270.0,60 L270.0,528" stroke="#CCCCCC" stroke-width="1" stroke-dasharray="6,4" />
<rect x="390.0" y="20" width="120" height="40" fill="#FFFFFF" stroke="#E95420" stroke-width="1" rx="4" ry="4" />
<text x="450.0" y="40.0" font-size="12" font-family="'Ubuntu Sans', Ubuntu, system-ui, -apple-system, sans-serif" fill="#000000" text-anchor="middle" dominant-baseline="central">Charm</text>
<path d="M450.0,60 L450.0,528" stroke="#CCCCCC" stroke-width="1" stroke-dasharray="6,4" />
<g>
<rect x="85.0" y="294" width="10" height="36" fill="#CCCCEE" stroke="#8888CC" stroke-width="1" />
<rect x="265.0" y="258" width="10" height="108" fill="#CCCCEE" stroke="#8888CC" stroke-width="1" />
<rect x="445.0" y="222" width="10" height="180" fill="#CCCCEE" stroke="#8888CC" stroke-width="1" />
</g>
<path d="M90.0,114 L270.0,114" stroke="#555555" stroke-width="1" marker-end="url(#seq-arrow-open)" />
<text x="180.0" y="100.0" font-size="11" font-family="'Ubuntu Sans', Ubuntu, system-ui, -apple-system, sans-serif" fill="#333333" text-anchor="middle" dominant-baseline="central">watcher fires</text>
<path d="M 270.0,143.0 L 285.0,143.0 Q 290.0,143.0 290.0,148.0 L 290.0,152.0 Q 290.0,157.0 285.0,157.0 L 270.0,157.0" fill="none" stroke="#555555" stroke-width="1" marker-end="url(#seq-arrow)" />
<text x="270.0" y="135.0" font-size="11" font-family="'Ubuntu Sans', Ubuntu, system-ui, -apple-system, sans-serif" fill="#333333" text-anchor="middle" dominant-baseline="central">snapshot state</text>
<path d="M 270.0,179.0 L 285.0,179.0 Q 290.0,179.0 290.0,184.0 L 290.0,188.0 Q 290.0,193.0 285.0,193.0 L 270.0,193.0" fill="none" stroke="#555555" stroke-width="1" marker-end="url(#seq-arrow)" />
<text x="270.0" y="171.0" font-size="11" font-family="'Ubuntu Sans', Ubuntu, system-ui, -apple-system, sans-serif" fill="#333333" text-anchor="middle" dominant-baseline="central">resolve next hook</text>
<path d="M270.0,222 L450.0,222" stroke="#555555" stroke-width="1" marker-end="url(#seq-arrow)" />
<text x="360.0" y="208.0" font-size="11" font-family="'Ubuntu Sans', Ubuntu, system-ui, -apple-system, sans-serif" fill="#333333" text-anchor="middle" dominant-baseline="central">exec dispatch</text>
<rect x="26.0" y="250" width="488.0" height="160" fill="#F0F4FF" stroke="#8888CC" stroke-width="1" rx="4" ry="4" fill-opacity="0.4" />
<rect x="26.0" y="237" width="109.0" height="14" fill="#8888CC" stroke="none" rx="2" ry="2" fill-opacity="0.9" />
<text x="31.0" y="244.0" font-size="9" font-family="'Ubuntu Sans', Ubuntu, system-ui, -apple-system, sans-serif" fill="#FFFFFF" dominant-baseline="central">[loop] during hook</text>
<path d="M450.0,258 L270.0,258" stroke="#555555" stroke-width="1" marker-end="url(#seq-arrow)" />
<text x="360.0" y="244.0" font-size="11" font-family="'Ubuntu Sans', Ubuntu, system-ui, -apple-system, sans-serif" fill="#333333" text-anchor="middle" dominant-baseline="central">hook command</text>
<path d="M270.0,294 L90.0,294" stroke="#555555" stroke-width="1" marker-end="url(#seq-arrow)" />
<text x="180.0" y="280.0" font-size="11" font-family="'Ubuntu Sans', Ubuntu, system-ui, -apple-system, sans-serif" fill="#333333" text-anchor="middle" dominant-baseline="central">serve via API</text>
<path d="M90.0,330 L270.0,330" stroke="#555555" stroke-width="1" marker-end="url(#seq-arrow)" stroke-dasharray="5,3" />
<path d="M270.0,366 L450.0,366" stroke="#555555" stroke-width="1" marker-end="url(#seq-arrow)" stroke-dasharray="5,3" />
<rect x="26.0" y="394" width="488.0" height="196" fill="#F0F4FF" stroke="#8888CC" stroke-width="1" rx="4" ry="4" fill-opacity="0.4" />
<rect x="26.0" y="381" width="76.0" height="14" fill="#8888CC" stroke="none" rx="2" ry="2" fill-opacity="0.9" />
<text x="31.0" y="388.0" font-size="9" font-family="'Ubuntu Sans', Ubuntu, system-ui, -apple-system, sans-serif" fill="#FFFFFF" dominant-baseline="central">[alt] exit 0</text>
<path d="M450.0,402 L270.0,402" stroke="#555555" stroke-width="1" marker-end="url(#seq-arrow)" stroke-dasharray="5,3" />
<text x="360.0" y="388.0" font-size="11" font-family="'Ubuntu Sans', Ubuntu, system-ui, -apple-system, sans-serif" fill="#333333" text-anchor="middle" dominant-baseline="central">success</text>
<path d="M270.0,438 L90.0,438" stroke="#555555" stroke-width="1" marker-end="url(#seq-arrow)" />
<text x="180.0" y="424.0" font-size="11" font-family="'Ubuntu Sans', Ubuntu, system-ui, -apple-system, sans-serif" fill="#333333" text-anchor="middle" dominant-baseline="central">flush writes</text>
<path d="M26.0,474 L514.0,474" stroke="#8888CC" stroke-width="1" stroke-dasharray="4,3" />
<text x="32.0" y="478" font-size="10" font-family="'Ubuntu Sans', Ubuntu, system-ui, -apple-system, sans-serif" fill="#8888CC" dominant-baseline="hanging">[else] failure</text>
<path d="M450.0,510 L270.0,510" stroke="#555555" stroke-width="1" marker-end="url(#seq-arrow)" stroke-dasharray="5,3" />
<text x="360.0" y="496.0" font-size="11" font-family="'Ubuntu Sans', Ubuntu, system-ui, -apple-system, sans-serif" fill="#333333" text-anchor="middle" dominant-baseline="central">failure</text>
<path d="M270.0,546 L90.0,546" stroke="#555555" stroke-width="1" marker-end="url(#seq-arrow)" />
<text x="180.0" y="532.0" font-size="11" font-family="'Ubuntu Sans', Ubuntu, system-ui, -apple-system, sans-serif" fill="#333333" text-anchor="middle" dominant-baseline="central">discard + set error</text>
<rect x="30.0" y="528" width="120" height="40" fill="#E95420" stroke="#C74210" stroke-width="1" rx="4" ry="4" />
<text x="90.0" y="548.0" font-size="12" font-family="'Ubuntu Sans', Ubuntu, system-ui, -apple-system, sans-serif" fill="#FFFFFF" text-anchor="middle" dominant-baseline="central">API server</text>
<rect x="210.0" y="528" width="120" height="40" fill="#E95420" stroke="#C74210" stroke-width="1" rx="4" ry="4" />
<text x="270.0" y="548.0" font-size="12" font-family="'Ubuntu Sans', Ubuntu, system-ui, -apple-system, sans-serif" fill="#FFFFFF" text-anchor="middle" dominant-baseline="central">Unit agent</text>
<rect x="390.0" y="528" width="120" height="40" fill="#FFFFFF" stroke="#E95420" stroke-width="1" rx="4" ry="4" />
<text x="450.0" y="548.0" font-size="12" font-family="'Ubuntu Sans', Ubuntu, system-ui, -apple-system, sans-serif" fill="#000000" text-anchor="middle" dominant-baseline="central">Charm</text>
</g>
</svg>