<?xml version="1.0" encoding="UTF-8"?>
<svg xmlns="http://www.w3.org/2000/svg" xmlns:xlink="http://www.w3.org/1999/xlink"
     width="795.2" height="250.0" viewBox="0 0 795.2 250.0">
<defs>
<marker markerWidth="8" markerHeight="8" viewBox="0 0 8 8" orient="auto" id="arrow" refX="8" refY="4.0">
<path d="M0,0 L8,4.0 L0,8 Z" fill="#555555" />
</marker>
<marker markerWidth="8" markerHeight="8" viewBox="0 0 8 8" orient="auto-start-reverse" id="arrow-start" refX="8" refY="4.0">
<path d="M0,0 L8,4.0 L0,8 Z" fill="#555555" />
</marker>
<marker markerWidth="8" markerHeight="8" viewBox="0 0 8 8" orient="auto" id="arrow-open" refX="8" refY="4.0">
<path d="M0,0 L8,4.0 L0,8" fill="none" stroke="#555555" stroke-width="1.5" />
</marker>
<marker markerWidth="8" markerHeight="8" viewBox="0 0 8 8" orient="auto-start-reverse" id="arrow-open-start" refX="8" refY="4.0">
<path d="M0,0 L8,4.0 L0,8" fill="none" stroke="#555555" stroke-width="1.5" />
</marker>
</defs>
<rect x="0" y="0" width="795.2" height="250.0" fill="#FFFFFF" />
<g id="ggarch-nodes">
<rect x="232.8" y="20.0" width="542.4" height="210.0" fill="#FFF3EE" stroke="#E0956A" stroke-width="1" rx="6" ry="6" />
<text x="504.0" y="34.0" font-size="13" font-family="'Ubuntu Sans', Ubuntu, system-ui, -apple-system, sans-serif" fill="#5A2800" text-anchor="middle" dominant-baseline="central">Unit pod</text>
<rect x="472.8" y="104.0" width="286.4" height="98.0" fill="#FFF3EE" stroke="#E0956A" stroke-width="1" rx="6" ry="6" />
<text x="616.0" y="118.0" font-size="13" font-family="'Ubuntu Sans', Ubuntu, system-ui, -apple-system, sans-serif" fill="#5A2800" text-anchor="middle" dominant-baseline="central">Workload</text>
<rect x="488.79999999999995" y="132.0" width="80.0" height="42.0" fill="#F5F5F5" stroke="#AAAAAA" stroke-width="1" rx="4" ry="4" />
<text x="528.8" y="153.0" font-size="13" font-family="'Ubuntu Sans', Ubuntu, system-ui, -apple-system, sans-serif" fill="#444444" text-anchor="middle" dominant-baseline="central">Pebble</text>
<rect x="588.8" y="132.0" width="154.4" height="42.0" fill="#F5F5F5" stroke="#AAAAAA" stroke-width="1" rx="4" ry="4" />
<text x="666.0" y="153.0" font-size="13" font-family="'Ubuntu Sans', Ubuntu, system-ui, -apple-system, sans-serif" fill="#444444" text-anchor="middle" dominant-baseline="central">Workload services</text>
<rect x="248.8" y="104.0" width="104.0" height="42.0" fill="#F0F0F0" stroke="#C74210" stroke-width="1" rx="4" ry="4" />
<text x="300.8" y="125.0" font-size="13" font-family="'Ubuntu Sans', Ubuntu, system-ui, -apple-system, sans-serif" fill="#333333" text-anchor="middle" dominant-baseline="central">Unit agent</text>
<rect x="253.8" y="108.0" width="14" height="14" fill="#E95420" stroke="none" rx="3" ry="3" />
<text x="260.8" y="115.0" font-size="10" font-family="'Ubuntu Sans', Ubuntu, system-ui, -apple-system, sans-serif" fill="#FFFFFF" text-anchor="middle" dominant-baseline="central" font-weight="bold">J</text>
<rect x="372.8" y="104.0" width="80.0" height="42.0" fill="#F0F0F0" stroke="#E95420" stroke-width="2" rx="4" ry="4" />
<text x="412.8" y="125.0" font-size="13" font-family="'Ubuntu Sans', Ubuntu, system-ui, -apple-system, sans-serif" fill="#000000" text-anchor="middle" dominant-baseline="central">Charm</text>
<rect x="377.8" y="108.0" width="14" height="14" fill="none" stroke="#E95420" stroke-width="1.5" rx="3" ry="3" />
<rect x="20.0" y="20.0" width="132.8" height="210.0" fill="#FFF3EE" stroke="#E0956A" stroke-width="1" rx="6" ry="6" />
<text x="86.4" y="125.0" font-size="13" font-family="'Ubuntu Sans', Ubuntu, system-ui, -apple-system, sans-serif" fill="#5A2800" text-anchor="middle" dominant-baseline="central">Controller pod</text>
</g>
<g id="ggarch-edges">
<path d="M 152.8 125.0 L 232.8 125.0" fill="none" stroke="#888888" stroke-width="1" stroke-linejoin="round" stroke-dasharray="6,3" marker-end="url(#arrow-open)" />
<path d="M 352.8 131.0 L 372.8 131.0" fill="none" stroke="#555555" stroke-width="1" stroke-linejoin="round" marker-end="url(#arrow)" />
<path d="M 372.8 119.0 L 352.8 119.0" fill="none" stroke="#888888" stroke-width="1" stroke-linejoin="round" stroke-dasharray="2,2" marker-end="url(#arrow)" />
<path d="M 452.8 113.0 L 472.8 125.0" fill="none" stroke="#555555" stroke-width="1" stroke-linejoin="round" marker-end="url(#arrow)" />
<path d="M 452.8 137.0 L 488.8 153.0" fill="none" stroke="#555555" stroke-width="1" stroke-linejoin="round" marker-end="url(#arrow)" />
<path d="M 568.8 153.0 L 588.8 153.0" fill="none" stroke="#555555" stroke-width="1" stroke-linejoin="round" marker-end="url(#arrow)" />
</g>
<g id="ggarch-annotations"></g>
</svg>